<?xml version="1.0" encoding="UTF-8" standalone="no"?><!DOCTYPE svg PUBLIC "-//W3C//DTD SVG 1.1//EN" "http://www.w3.org/Graphics/SVG/1.1/DTD/svg11.dtd"><svg width="500px" height="120px" version="1.1" xmlns="http://www.w3.org/2000/svg" xmlns:xlink="http://www.w3.org/1999/xlink" xml:space="preserve" xmlns:serif="http://www.serif.com/" style="fill-rule:evenodd;clip-rule:evenodd;stroke-linejoin:round;stroke-miterlimit:2;"><g transform="matrix(1,0,0,1,-2800.01,-2168.12)"><g transform="matrix(1,0,0,1,345.333,0.00376404)"><path d="M2533.62,2249.35C2533.62,2249.35 2574.54,2174.55 2577.68,2168.82C2577.86,2168.48 2578.21,2168.26 2578.6,2168.26C2578.99,2168.26 2579.34,2168.47 2579.53,2168.81C2585.39,2179.41 2629.53,2259.01 2633.46,2266.19C2635.98,2270.78 2635.89,2276.36 2633.21,2280.86C2630.55,2285.36 2625.7,2288.12 2620.47,2288.12L2516.07,2288.12C2515.69,2288.12 2515.35,2287.92 2515.15,2287.6C2514.97,2287.28 2514.96,2286.88 2515.14,2286.55C2518.17,2281.01 2528.33,2262.44 2530.21,2259C2530.4,2258.66 2530.75,2258.45 2531.13,2258.45L2595.31,2258.45L2581.01,2232.72L2578.75,2228.65C2576.96,2231.91 2570.25,2244.17 2567.17,2249.79C2566.2,2251.56 2564.35,2252.66 2562.34,2252.66L2528.57,2252.66C2527.6,2252.66 2526.72,2253.18 2526.25,2254.03C2522.95,2259.99 2509.83,2283.68 2507.67,2287.58C2507.49,2287.91 2507.13,2288.12 2506.74,2288.12L2505.23,2288.12C2505.23,2288.12 2520.58,2260.26 2524.78,2252.63C2525.42,2251.44 2526.66,2250.72 2528.01,2250.72L2531.3,2250.72C2532.27,2250.72 2533.16,2250.18 2533.62,2249.35Z" style="fill:rgb(245,163,0);"/></g><g transform="matrix(1.17621,0,0,1.17621,2941.03,2210.07)"><path d="M56.554,6.898C55.786,6.898 55.389,7.269 55.389,8.01L55.389,24.823L58.462,24.823L58.462,20.314L68.462,20.314C71.195,20.314 73.078,19.36 74.323,17.824C75.25,16.684 75.807,15.198 75.807,13.606C75.807,11.908 75.223,10.343 74.217,9.176C73.025,7.772 71.221,6.898 68.462,6.898L56.554,6.898ZM169.744,17.503L180.779,17.503C182.344,17.503 183.512,18.325 183.512,20.208L183.512,23.417C183.512,23.842 183.538,24.239 183.591,24.823L186.718,24.823C186.664,24.319 186.638,23.895 186.638,23.125L186.638,19.677C186.638,17.503 185.817,16.39 184.333,15.86C185.87,14.934 186.479,13.421 186.479,11.723C186.479,10.634 186.002,9.441 185.154,8.514C184.28,7.56 183.008,6.898 180.647,6.898L167.863,6.898C167.068,6.898 166.671,7.269 166.671,8.01L166.671,24.823L169.744,24.823L169.744,17.503ZM80.872,17.503L91.908,17.503C93.473,17.503 94.64,18.325 94.64,20.208L94.64,23.417C94.64,23.842 94.666,24.239 94.719,24.823L97.846,24.823C97.792,24.319 97.766,23.895 97.766,23.125L97.766,19.677C97.766,17.503 96.945,16.39 95.461,15.86C96.998,14.934 97.607,13.421 97.607,11.723C97.607,10.634 97.13,9.441 96.282,8.514C95.408,7.56 94.136,6.898 91.775,6.898L78.991,6.898C78.196,6.898 77.799,7.269 77.799,8.01L77.799,24.823L80.872,24.823L80.872,17.503ZM141.766,24.239C141.846,24.425 141.925,24.637 141.978,24.823L145.479,24.823C145.426,24.584 145.346,24.319 145.187,24.027L137.761,9.149C136.859,7.348 135.56,6.5 133.465,6.5C131.131,6.5 129.937,7.533 128.771,9.918L121.928,24.027C121.795,24.319 121.716,24.557 121.636,24.823L125.27,24.823C125.323,24.61 125.403,24.398 125.482,24.213L126.808,21.402L140.387,21.402L141.766,24.239ZM162.876,24.823C163.645,24.823 164.015,24.452 164.015,23.683L164.015,15.011L160.942,15.011L160.942,21.431C160.942,21.75 160.81,21.909 160.491,21.909L154.417,21.909C152.241,21.909 150.782,21.192 149.695,20.131C148.607,19.044 147.917,17.531 147.917,15.887C147.917,14.242 148.554,12.783 149.589,11.722C150.676,10.608 152.215,9.944 154.417,9.944L163.989,9.944L163.989,6.898L155.026,6.898C151.446,6.898 149.456,7.587 147.546,9.335C145.824,10.899 144.817,13.128 144.817,15.86C144.817,18.566 145.824,20.794 147.546,22.385C149.456,24.134 151.446,24.823 155.026,24.823L162.876,24.823ZM102.222,9.335C100.5,10.899 99.493,13.128 99.493,15.86C99.493,18.566 100.5,20.847 102.222,22.438C104.131,24.187 106.121,24.823 109.702,24.823L112.089,24.823C115.67,24.823 117.66,24.213 119.569,22.465C121.291,20.874 122.298,18.566 122.298,15.86C122.298,13.128 121.291,10.899 119.569,9.335C117.66,7.587 115.67,6.898 112.089,6.898L109.702,6.898C106.121,6.898 104.131,7.587 102.222,9.335ZM191.094,9.335C189.372,10.899 188.365,13.128 188.365,15.86C188.365,18.566 189.372,20.847 191.094,22.438C193.003,24.187 194.993,24.823 198.574,24.823L200.961,24.823C204.542,24.823 206.532,24.213 208.441,22.465C210.163,20.874 211.17,18.566 211.17,15.86C211.17,13.128 210.163,10.899 208.441,9.335C206.532,7.587 204.542,6.898 200.961,6.898L198.574,6.898C194.993,6.898 193.003,7.587 191.094,9.335ZM119.225,15.913C119.225,17.505 118.588,18.964 117.58,20.025C116.519,21.139 115.007,21.856 112.726,21.856L109.065,21.856C106.784,21.856 105.272,21.139 104.211,20.025C103.203,18.964 102.566,17.505 102.566,15.913C102.566,14.056 103.389,12.385 104.715,11.297C105.723,10.448 107.049,9.944 109.145,9.944L112.646,9.944C114.742,9.944 116.068,10.448 117.076,11.297C118.403,12.385 119.225,14.056 119.225,15.913ZM208.097,15.913C208.097,17.505 207.46,18.964 206.452,20.025C205.391,21.139 203.879,21.856 201.598,21.856L197.937,21.856C195.656,21.856 194.144,21.139 193.083,20.025C192.075,18.964 191.438,17.505 191.438,15.913C191.438,14.056 192.261,12.385 193.587,11.297C194.595,10.448 195.921,9.944 198.017,9.944L201.518,9.944C203.614,9.944 204.94,10.448 205.948,11.297C207.274,12.385 208.097,14.056 208.097,15.913ZM132.006,10.422C132.378,9.653 132.802,9.387 133.518,9.387C134.207,9.387 134.685,9.706 135.03,10.448L139.008,18.62L128.108,18.62L132.006,10.422ZM58.462,17.453L58.462,10.422C58.462,10.104 58.621,9.944 58.913,9.944L68.462,9.944C70.081,9.944 71.142,10.448 71.831,11.244C72.389,11.908 72.733,12.757 72.733,13.712C72.733,14.694 72.362,15.569 71.725,16.233C71.009,16.976 70.001,17.453 68.462,17.453L58.462,17.453ZM169.744,14.775L169.744,10.237C169.744,9.918 169.903,9.759 170.248,9.759L180.434,9.759C181.628,9.759 182.318,10.157 182.769,10.714C183.114,11.139 183.3,11.67 183.3,12.227C183.3,12.758 183.114,13.289 182.795,13.713C182.344,14.323 181.655,14.775 180.434,14.775L169.744,14.775ZM80.872,14.775L80.872,10.237C80.872,9.918 81.031,9.759 81.376,9.759L91.563,9.759C92.756,9.759 93.446,10.157 93.897,10.714C94.242,11.139 94.428,11.67 94.428,12.227C94.428,12.758 94.242,13.289 93.923,13.713C93.473,14.323 92.783,14.775 91.563,14.775L80.872,14.775Z" style="fill:rgb(255,191,0);fill-rule:nonzero;"/></g><g transform="matrix(1.17621,0,0,1.17621,2941.03,2210.07)"><path d="M216.715,6.898C214.569,6.898 213.482,7.957 213.482,10.183L213.482,24.823L216.556,24.823L216.556,17.556L232.256,17.556L232.256,14.642L216.556,14.642L216.556,10.794C216.556,10.21 216.821,9.944 217.378,9.944L232.336,9.944L232.336,6.898L216.715,6.898ZM275.542,6.898L275.542,24.823L278.642,24.823L278.642,6.898L275.542,6.898ZM251.273,24.239C251.353,24.425 251.432,24.637 251.486,24.823L254.986,24.823C254.933,24.584 254.854,24.319 254.695,24.027L247.269,9.149C246.367,7.347 245.068,6.5 242.972,6.5C240.638,6.5 239.445,7.533 238.278,9.918L231.435,24.027C231.303,24.319 231.224,24.557 231.144,24.823L234.777,24.823C234.83,24.61 234.91,24.398 234.989,24.213L236.316,21.401L249.894,21.401L251.273,24.239ZM300.123,24.823L300.123,21.856L287.102,21.856C284.979,21.856 284.369,21.246 284.369,19.045L284.369,6.898L281.271,6.898L281.271,19.045C281.271,22.73 282.78,24.823 287.102,24.823L300.123,24.823ZM273.231,21.856L263.896,21.856C261.615,21.856 260.103,21.139 259.042,20.025C258.035,18.964 257.398,17.505 257.398,15.913C257.398,14.056 258.22,12.385 259.546,11.297C260.554,10.448 261.88,9.944 263.975,9.944L273.231,9.944L273.231,6.898L264.532,6.898C260.952,6.898 258.963,7.586 257.054,9.335C255.332,10.899 254.325,13.128 254.325,15.86C254.325,18.566 255.332,20.794 257.054,22.385C258.963,24.134 260.952,24.823 264.532,24.823L273.231,24.823L273.231,21.856ZM241.514,10.422C241.885,9.652 242.309,9.387 243.025,9.387C243.715,9.387 244.192,9.705 244.537,10.448L248.515,18.62L237.615,18.62L241.514,10.422ZM244.219,0.082L240.798,5.727L243.715,5.727L247.958,0.082L244.219,0.082Z" style="fill:rgb(120,134,148);fill-rule:nonzero;"/></g><g transform="matrix(3.76404,0,0,3.76404,2837,2167.67)"><path d="M43.522,32C45.695,32 47.457,30.238 47.457,28.064C47.457,25.891 45.695,24.129 43.522,24.129C41.348,24.129 39.586,25.891 39.586,28.064C39.586,30.238 41.348,32 43.522,32Z" style="fill:rgb(120,134,148);fill-rule:nonzero;"/></g><g transform="matrix(1,0,0,1,345.333,0)"><path d="M2560.8,2199.63C2560.79,2199.64 2560.78,2199.66 2560.78,2199.68C2560.67,2199.87 2560.56,2200.08 2560.45,2200.27L2559.64,2201.74C2559.64,2201.74 2560.02,2201.06 2560.45,2200.27L2560.8,2199.63C2561,2199.33 2561.34,2199.13 2561.7,2199.13C2562.08,2199.13 2562.45,2199.34 2562.63,2199.67C2568.01,2209.36 2594.93,2257.76 2595.31,2258.45L2622.97,2258.45C2624.28,2258.45 2625.49,2257.76 2626.17,2256.64C2626.66,2255.8 2626.8,2254.8 2626.58,2253.87C2617.29,2237.08 2585.39,2179.42 2579.53,2168.81C2579.34,2168.48 2578.99,2168.27 2578.6,2168.26C2578.21,2168.26 2577.86,2168.48 2577.68,2168.82C2574.54,2174.56 2564.27,2193.3 2560.8,2199.63Z" style="fill:rgb(250,175,0);"/></g><g transform="matrix(3.76404,0,0,3.76404,2837,2167.67)"><path d="M35.728,22.622C35.728,22.622 35.735,22.636 35.748,22.66C35.916,22.965 35.908,23.336 35.733,23.635C35.554,23.934 35.233,24.117 34.884,24.117L10.485,24.117C10.384,24.117 10.29,24.173 10.24,24.264C9.74,25.177 7.042,30.11 6.235,31.583C6.188,31.671 6.19,31.776 6.24,31.862C6.292,31.948 6.383,31.999 6.483,31.999L34.22,31.999C35.609,31.999 36.896,31.266 37.604,30.07C38.315,28.875 38.339,27.394 37.671,26.174C36.626,24.265 35.728,22.622 35.728,22.622Z" style="fill:rgb(255,191,0);"/></g><g transform="matrix(1,0,0,1,345.333,0)"><path d="M2505.24,2288.12C2497.75,2288.11 2491.68,2282.03 2491.68,2274.54L2491.68,2169.18C2491.68,2168.59 2492.15,2168.12 2492.73,2168.12L2538.73,2168.12C2539.92,2168.14 2540.88,2168.14 2542.37,2168.21C2553.62,2168.74 2563.63,2173.98 2570.47,2182L2533.63,2249.35C2533.17,2250.19 2532.27,2250.73 2531.31,2250.73L2528.02,2250.73C2526.67,2250.73 2525.43,2251.45 2524.78,2252.63C2520.59,2260.26 2505.28,2288.06 2505.24,2288.12ZM2523.74,2220.9L2537.06,2220.9C2543.03,2220.9 2547.88,2216.05 2547.88,2210.08C2547.88,2204.11 2543.03,2199.26 2537.06,2199.26L2523.74,2199.26C2523.15,2199.26 2522.68,2199.73 2522.68,2200.32L2522.68,2219.84C2522.68,2220.42 2523.15,2220.9 2523.74,2220.9Z" style="fill:rgb(120,134,148);fill-rule:nonzero;"/></g></g></svg>